<?xml version="1.0" encoding="UTF-8"?>
<svg xmlns="http://www.w3.org/2000/svg" width="1600" height="900" viewBox="0 0 1600 900" role="img" aria-label="Egusi Soup illustration">
  <defs>
    <filter id="shadow" x="-50%" y="-50%" width="200%" height="200%">
      <feDropShadow dx="0" dy="6" stdDeviation="20" flood-color="#000" flood-opacity="0.15"/>
    </filter>
    <linearGradient id="g1" x1="0" x2="1" y1="0" y2="1">
      <stop offset="0" stop-color="#F9FCFA"/>
      <stop offset="1" stop-color="#F2F8F4"/>
    </linearGradient>
  </defs>
  <rect width="1600" height="900" fill="url(#g1)"/>
  <g transform="translate(800,460)">
    <ellipse rx="520" ry="200" fill="#D5EADF"/>
  </g>
  <g transform="translate(800,420)" filter="url(#shadow)">
    <circle r="300" fill="#FFFFFF" stroke="#E6ECE7" stroke-width="10"/>
    <circle r="260" fill="#F6E3A1"/>
    <g>
      <circle cx="-120" cy="-40" r="42" fill="#E8B03C"/>
      <circle cx="60" cy="-80" r="42" fill="#E8B03C"/>
      <circle cx="100" cy="30" r="42" fill="#E8B03C"/>
      <circle cx="-60" cy="90" r="42" fill="#E8B03C"/>
    </g>
    <g>
      <path d="M-150,-100 q30,20 60,0 q20,-12 40,8 q-18,30 -58,34 q-50,6 -42,-42z" fill="#2E7D32" fill-opacity="0.85"/>
      <path d="M120,-30 q30,20 58,10 q24,-12 44,12 q-16 28 -56 34 q-46 8 -46,-56z" fill="#2E7D32" fill-opacity="0.85"/>
      <path d="M-40,40 q30,18 50,10 q24,-10 40,16 q-12,28 -48,34 q-44 10 -42,-60z" fill="#2E7D32" fill-opacity="0.85"/>
    </g>
    <g fill="#C44A2A" opacity="0.9">
      <circle cx="-40" cy="-10" r="18"/>
      <circle cx="20" cy="-20" r="14"/>
      <circle cx="60" cy="50" r="16"/>
      <circle cx="-80" cy="30" r="12"/>
    </g>
  </g>
  <text x="800" y="820" text-anchor="middle" font-family="Work Sans, Arial, sans-serif" font-size="48" font-weight="800" fill="#0B1F1A">Egusi Soup</text>
</svg>
